<svg width="110" height="110" viewBox="0 0 110 110" fill="none" xmlns="http://www.w3.org/2000/svg">
<rect width="110" height="110" fill="#1F1E1E"/>
<path d="M63 51L57 45.74C56.45 45.2481 55.7379 44.9761 55 44.9761C54.2621 44.9761 53.55 45.2481 53 45.74L47 51C46.6824 51.2841 46.4289 51.6326 46.2565 52.0223C46.084 52.4119 45.9966 52.8339 46 53.26V62C46 62.7957 46.3161 63.5587 46.8787 64.1213C47.4413 64.6839 48.2044 65 49 65H61C61.7957 65 62.5587 64.6839 63.1213 64.1213C63.6839 63.5587 64 62.7957 64 62V53.25C64.002 52.8256 63.9139 52.4055 63.7415 52.0177C63.5691 51.6298 63.3164 51.283 63 51ZM57 63H53V58C53 57.7348 53.1054 57.4804 53.2929 57.2929C53.4804 57.1054 53.7348 57 54 57H56C56.2652 57 56.5196 57.1054 56.7071 57.2929C56.8946 57.4804 57 57.7348 57 58V63ZM62 62C62 62.2652 61.8946 62.5196 61.7071 62.7071C61.5196 62.8946 61.2652 63 61 63H59V58C59 57.2044 58.6839 56.4413 58.1213 55.8787C57.5587 55.3161 56.7957 55 56 55H54C53.2044 55 52.4413 55.3161 51.8787 55.8787C51.3161 56.4413 51 57.2044 51 58V63H49C48.7348 63 48.4804 62.8946 48.2929 62.7071C48.1054 62.5196 48 62.2652 48 62V53.25C48.0002 53.108 48.0306 52.9677 48.0892 52.8384C48.1478 52.7091 48.2333 52.5937 48.34 52.5L54.34 47.25C54.5225 47.0897 54.7571 47.0013 55 47.0013C55.2429 47.0013 55.4775 47.0897 55.66 47.25L61.66 52.5C61.7667 52.5937 61.8522 52.7091 61.9108 52.8384C61.9694 52.9677 61.9998 53.108 62 53.25V62Z" fill="#BC3324"/>
<path d="M62 62C62 62.2652 61.8946 62.5196 61.7071 62.7071C61.5196 62.8946 61.2652 63 61 63H59V58C59 57.2044 58.6839 56.4413 58.1213 55.8787C57.5587 55.3161 56.7957 55 56 55H54C53.2044 55 52.4413 55.3161 51.8787 55.8787C51.3161 56.4413 51 57.2044 51 58V63H49C48.7348 63 48.4804 62.8946 48.2929 62.7071C48.1054 62.5196 48 62.2652 48 62V53.25C48.0002 53.108 48.0306 52.9677 48.0892 52.8384C48.1478 52.7091 48.2333 52.5937 48.34 52.5L54.34 47.25C54.5225 47.0897 54.7571 47.0013 55 47.0013C55.2429 47.0013 55.4775 47.0897 55.66 47.25L61.66 52.5C61.7667 52.5937 61.8522 52.7091 61.9108 52.8384C61.9694 52.9677 61.9998 53.108 62 53.25V62Z" fill="#BC3324"/>
</svg>
