<svg width="110" height="110" viewBox="0 0 110 110" fill="none" xmlns="http://www.w3.org/2000/svg">
<rect width="110" height="110" fill="#1F1E1E"/>
<path d="M64.663 51.7716C64.8156 51.8905 64.9305 52.0512 64.9936 52.2341C65.0423 52.417 65.038 52.6099 64.9814 52.7905C64.9247 52.971 64.818 53.1318 64.6736 53.2541L60.5436 57.2541L61.5436 62.9341C61.5793 63.1216 61.5606 63.3154 61.4898 63.4926C61.4189 63.6698 61.2988 63.823 61.1436 63.9341C60.972 64.0583 60.7655 64.1249 60.5536 64.1241C60.3925 64.1246 60.234 64.0833 60.0936 64.0041L54.9936 61.3241L49.8736 63.9941C49.7094 64.0812 49.5242 64.1208 49.3387 64.1084C49.1532 64.096 48.9748 64.0322 48.8236 63.9241C48.6685 63.813 48.5484 63.6598 48.4775 63.4826C48.4066 63.3054 48.3879 63.1116 48.4236 62.9241L49.4236 57.2441L45.2936 53.2441C45.1651 53.1158 45.0739 52.955 45.0299 52.7788C44.9858 52.6026 44.9906 52.4178 45.0436 52.2441C45.1016 52.0664 45.2082 51.9085 45.3514 51.7883C45.4946 51.6681 45.6686 51.5904 45.8536 51.5641L51.5436 50.7241L54.0936 45.5641C54.1755 45.395 54.3034 45.2525 54.4625 45.1527C54.6217 45.0529 54.8058 45 54.9936 45C55.1815 45 55.3655 45.0529 55.5247 45.1527C55.6839 45.2525 55.8117 45.395 55.8936 45.5641L58.4436 50.7341L64.1336 51.5641C64.3264 51.5806 64.5103 51.6527 64.663 51.7716Z" fill="#BC3324"/>
</svg>
